<svg xmlns="http://www.w3.org/2000/svg" version="1.1" xmlns:xlink="http://www.w3.org/1999/xlink" width="200" height="200"><svg xmlns="http://www.w3.org/2000/svg" version="1.1" xmlns:xlink="http://www.w3.org/1999/xlink" viewBox="0 0 200 200"><rect width="200" height="200" fill="url('#gradient')"></rect><defs><linearGradient id="SvgjsLinearGradient1001" gradientTransform="rotate(45 0.5 0.5)"><stop offset="0%" stop-color="#ffffff"></stop><stop offset="100%" stop-color="#796b73"></stop></linearGradient></defs><g><g fill="#ff001f" transform="matrix(3.586690017513135,0,0,3.586690017513135,8.737333347626205,125.14441513138351)" stroke="#b77332" stroke-width="0.2"><path d="M6.74-4.46L6.74-14.22L10.16-14.22L10.16-4.46Q10.16-3.11 9.53-2.04Q8.90-0.98 7.77-0.39Q6.64 0.20 5.25 0.20L5.25 0.20Q2.93 0.20 1.64-0.98Q0.35-2.15 0.35-4.30L0.35-4.30L3.79-4.30Q3.79-3.32 4.13-2.88Q4.46-2.44 5.25-2.44L5.25-2.44Q5.97-2.44 6.35-2.97Q6.74-3.51 6.74-4.46L6.74-4.46ZM16.99 0L12.31 0L12.31-14.22L16.89-14.22Q18.78-14.22 20.28-13.36Q21.79-12.51 22.63-10.95Q23.48-9.39 23.49-7.46L23.49-7.46L23.49-6.81Q23.49-4.85 22.66-3.31Q21.84-1.76 20.34-0.88Q18.84-0.01 16.99 0L16.99 0ZM16.89-11.57L15.74-11.57L15.74-2.64L16.93-2.64Q18.41-2.64 19.20-3.69Q19.99-4.74 19.99-6.81L19.99-6.81L19.99-7.42Q19.99-9.48 19.20-10.53Q18.41-11.57 16.89-11.57L16.89-11.57ZM33.95 0L33.12-2.66L28.42-2.66L27.60 0L23.94 0L29.15-14.22L32.37-14.22L37.63 0L33.95 0ZM30.76-10.23L29.24-5.30L32.29-5.30L30.76-10.23ZM50.54-14.22L50.54 0L47.13 0L42.09-8.85L42.09 0L38.66 0L38.66-14.22L42.09-14.22L47.12-5.37L47.12-14.22L50.54-14.22Z"></path></g></g></svg><style>@media (prefers-color-scheme: light) { :root { filter: none; } }
@media (prefers-color-scheme: dark) { :root { filter: none; } }
</style></svg>